name C:\Users\antoi\Documents\MyRepositories\upper-imu-dc\Results\main_tracking\Case_91\kinematics.mot
datacolumns 43
datarows 11
range 5.26000000 5.46000000
endheader 
time	clav_prot	clav_elev	scapula_abduction	scapula_elevation	scapula_upward_rot	scapula_winging	plane_elv	shoulder_elv	axial_rot	TrapeziusScapula_M/activation	TrapeziusScapula_S/activation	TrapeziusScapula_I/activation	TrapeziusClavicle_S/activation	SerratusAnterior_I/activation	SerratusAnterior_M/activation	SerratusAnterior_S/activation	Rhomboideus_S/activation	Rhomboideus_I/activation	LevatorScapulae/activation	Coracobrachialis/activation	DeltoideusClavicle_A/activation	DeltoideusScapula_P/activation	DeltoideusScapula_M/activation	LatissimusDorsi_S/activation	LatissimusDorsi_M/activation	LatissimusDorsi_I/activation	PectoralisMajorClavicle_S/activation	PectoralisMajorThorax_I/activation	PectoralisMajorThorax_M/activation	TeresMajor/activation	Infraspinatus_I/activation	Infraspinatus_S/activation	PectoralisMinor/activation	TeresMinor/activation	Subscapularis_S/activation	Subscapularis_M/activation	Subscapularis_I/activation	Supraspinatus_P/activation	Supraspinatus_A/activation	TRIlong/activation	BIC_long/activation	BIC_brevis/activation	
          5.26000000	        -39.48272323	          2.79894969	        -15.10416775	         -6.52624830	         51.42278181	         -8.35285341	         12.73286969	         78.26449032	          6.16572326	          0.04849232	          0.13755935	          0.02720949	          0.03099405	          0.11144896	          0.14525281	          0.01000000	          0.01000000	          0.01000000	          0.01000000	          0.01000002	          0.11400252	          0.01000000	          0.18382584	          0.01000000	          0.01000000	          0.01000000	          0.01000019	          0.01000000	          0.01000000	          0.01000000	          0.03817271	          0.04812289	          0.01000000	          0.01000002	          0.01000001	          0.01000000	          0.01000000	          0.02859417	          0.03628344	          0.01000000	          0.04103329	          0.01000007	
          5.28000000	        -39.61767134	          2.86288959	        -15.09190215	         -6.51113886	         51.73479767	         -8.46793883	         13.16550212	         78.48550561	          5.82523775	          0.04918888	          0.13883048	          0.02754033	          0.03125154	          0.11232429	          0.14735053	          0.01000000	          0.01000000	          0.01000000	          0.01000000	          0.01000002	          0.11631640	          0.01000000	          0.18461318	          0.01000000	          0.01000000	          0.01000000	          0.01000000	          0.01000000	          0.01000000	          0.01000000	          0.03865181	          0.04859083	          0.01000000	          0.01000002	          0.01000001	          0.01000000	          0.01000000	          0.02918630	          0.03726297	          0.01000000	          0.04178334	          0.01000007	
          5.30000000	        -39.75194039	          2.92326759	        -15.08267616	         -6.49751323	         52.04007365	         -8.58049205	         13.59547801	         78.70388365	          5.46313036	          0.04997702	          0.14017485	          0.02797662	          0.03150108	          0.11337729	          0.14953541	          0.01000000	          0.01000000	          0.01000000	          0.01000000	          0.01000002	          0.11883348	          0.01000000	          0.18558515	          0.01000000	          0.01000000	          0.01000000	          0.01000326	          0.01000000	          0.01000000	          0.01000000	          0.03913729	          0.04906792	          0.01000000	          0.01000002	          0.01000001	          0.01000000	          0.01000000	          0.02983510	          0.03835048	          0.01000000	          0.04262525	          0.01000010	
          5.32000000	        -39.88648837	          2.97951462	        -15.07671611	         -6.48595236	         52.34007048	         -8.69088350	         14.02361466	         78.92125637	          5.08617175	          0.05083472	          0.14158225	          0.02847381	          0.03174756	          0.11456572	          0.15180314	          0.01000000	          0.01000000	          0.01000000	          0.01000000	          0.01000002	          0.12156749	          0.01000000	          0.18666463	          0.01000000	          0.01000000	          0.01000000	          0.01000926	          0.01000000	          0.01000000	          0.01000000	          0.03957430	          0.04951130	          0.01000000	          0.01000002	          0.01000001	          0.01000000	          0.01000000	          0.03055777	          0.03959630	          0.01000000	          0.04357978	          0.01000091	
          5.34000000	        -40.02209402	          3.03153949	        -15.07411042	         -6.47667977	         52.63622771	         -8.79959235	         14.45092638	         79.13957807	          4.70257413	          0.05173507	          0.14303602	          0.02898036	          0.03199305	          0.11580078	          0.15410512	          0.01000000	          0.01000000	          0.01000000	          0.01000000	          0.01000003	          0.12443804	          0.01000000	          0.18775671	          0.01000000	          0.01000000	          0.01000000	          0.01021773	          0.01000000	          0.01000000	          0.01000000	          0.03993322	          0.04989591	          0.01000000	          0.01000001	          0.01000002	          0.01000000	          0.01000000	          0.03133067	          0.04095582	          0.01000000	          0.04460572	          0.01006699	
          5.36000000	        -40.15925869	          3.07975681	        -15.07485122	         -6.46952335	         52.92972368	         -8.90715002	         14.87866182	         79.36082402	          4.32166683	          0.05262846	          0.14448711	          0.02942941	          0.03223787	          0.11698089	          0.15638923	          0.01000000	          0.01000000	          0.01000000	          0.01000000	          0.01000003	          0.12731694	          0.01000000	          0.18875007	          0.01000000	          0.01000000	          0.01000000	          0.01053835	          0.01000000	          0.01000000	          0.01000000	          0.04019140	          0.05020957	          0.01000000	          0.01000001	          0.01000002	          0.01000000	          0.01000000	          0.03211301	          0.04233974	          0.01000000	          0.04562854	          0.01047423	
          5.38000000	        -40.29816724	          3.12496023	        -15.07886115	         -6.46399546	         53.22131842	         -9.01405645	         15.30821680	         79.58660444	          3.95315392	          0.05348814	          0.14589515	          0.02979133	          0.03247438	          0.11800763	          0.15856512	          0.01000000	          0.01000000	          0.01000000	          0.01000000	          0.01000003	          0.13007321	          0.01000000	          0.18952018	          0.01000000	          0.01000000	          0.01000000	          0.01092541	          0.01000000	          0.01000000	          0.01000000	          0.04033529	          0.05044158	          0.01000000	          0.01000001	          0.01000002	          0.01000000	          0.01000000	          0.03286334	          0.04366348	          0.01000000	          0.04658162	          0.01103222	
          5.40000000	        -40.43873878	          3.16807163	        -15.08602105	         -6.45947361	         53.51133266	         -9.12070020	         15.74090915	         79.81776726	          3.60600744	          0.05428798	          0.14721676	          0.03004573	          0.03269589	          0.11881644	          0.16056937	          0.01000000	          0.01000000	          0.01000000	          0.01000000	          0.01000004	          0.13259978	          0.01000000	          0.18999152	          0.01000000	          0.01000000	          0.01000000	          0.01135389	          0.01000000	          0.01000000	          0.01000000	          0.04036906	          0.05059798	          0.01000000	          0.01000001	          0.01000002	          0.01000000	          0.01000000	          0.03354320	          0.04484365	          0.01000000	          0.04740627	          0.01170980	
          5.42000000	        -40.58072626	          3.20984420	        -15.09617172	         -6.45542205	         53.79974198	         -9.22729228	         16.17781015	         80.05413060	          3.28720825	          0.05501607	          0.14842861	          0.03019340	          0.03290079	          0.11940221	          0.16239717	          0.01000000	          0.01000000	          0.01000000	          0.01000000	          0.01000004	          0.13490177	          0.01000000	          0.19015875	          0.01000000	          0.01000000	          0.01000000	          0.01181108	          0.01000000	          0.01000000	          0.01000000	          0.04029855	          0.05068339	          0.01000000	          0.01000001	          0.01000002	          0.01000000	          0.01000000	          0.03414537	          0.04586683	          0.01000000	          0.04810450	          0.01247666	
          5.44000000	        -40.72380975	          3.25068395	        -15.10909369	         -6.45153195	         54.08632817	         -9.33384950	         16.61973977	         80.29449123	          3.00089166	          0.05567564	          0.14954221	          0.03024668	          0.03309710	          0.11981883	          0.16412472	          0.01000000	          0.01000000	          0.01000000	          0.01000000	          0.01000005	          0.13711579	          0.01000000	          0.19010225	          0.01000000	          0.01000000	          0.01000000	          0.01231992	          0.01000000	          0.01000000	          0.01000000	          0.04011915	          0.05070065	          0.01000000	          0.01000001	          0.01000002	          0.01000000	          0.01000000	          0.03470977	          0.04681106	          0.01000000	          0.04874396	          0.01333849	
          5.46000000	        -40.86760919	          3.29071435	        -15.12447002	         -6.44768317	         54.37077658	         -9.44023369	         17.06744568	         80.53699638	          2.74826327	          0.05627089	          0.15059462	          0.03021553	          0.03330201	          0.12014005	          0.16586808	          0.01000000	          0.01000000	          0.01000000	          0.01000000	          0.01000005	          0.13941885	          0.01000000	          0.18994150	          0.01000000	          0.01000000	          0.01000000	          0.01293599	          0.01000000	          0.01000000	          0.01000000	          0.03981921	          0.05064929	          0.01000000	          0.01000001	          0.01000002	          0.01000000	          0.01000000	          0.03530030	          0.04780434	          0.01000000	          0.04941205	          0.01434754	
